<mxfile host="app.diagrams.net" modified="2023-09-30T00:37:40.642Z" agent="Mozilla/5.0 (Windows NT 10.0; Win64; x64; rv:109.0) Gecko/20100101 Firefox/118.0" etag="aAhdHk79jb8rzeXJy6Pv" version="21.8.2" type="device">
  <diagram name="Page-1" id="RHdIgs_2FYTNIEg3AQLu">
    <mxGraphModel dx="1434" dy="782" grid="1" gridSize="10" guides="1" tooltips="1" connect="1" arrows="1" fold="1" page="1" pageScale="1" pageWidth="850" pageHeight="1100" math="0" shadow="0">
      <root>
        <mxCell id="0" />
        <mxCell id="1" parent="0" />
        <mxCell id="kzBnHmGRQKXRV5qO2WeX-3" value="" style="rounded=1;whiteSpace=wrap;html=1;glass=0;shadow=1;" vertex="1" parent="1">
          <mxGeometry x="168.75" y="20" width="480" height="620" as="geometry" />
        </mxCell>
        <mxCell id="kzBnHmGRQKXRV5qO2WeX-8" value="&lt;font style=&quot;font-size: 18px;&quot; color=&quot;#ffffff&quot;&gt;Sign Up&lt;br&gt;&lt;/font&gt;" style="rounded=1;whiteSpace=wrap;html=1;align=center;verticalAlign=middle;fontFamily=Helvetica;fontSize=12;fillColor=#3C26FF;strokeColor=#6c8ebf;" vertex="1" parent="1">
          <mxGeometry x="235" y="510" width="350" height="60" as="geometry" />
        </mxCell>
        <mxCell id="kzBnHmGRQKXRV5qO2WeX-11" value="QwikChat" style="text;html=1;strokeColor=none;fillColor=none;align=center;verticalAlign=middle;whiteSpace=wrap;rounded=0;fontSize=51;fontFamily=Gugi;fontColor=default;fontStyle=1;fontSource=https%3A%2F%2Ffonts.googleapis.com%2Fcss%3Ffamily%3DGugi;" vertex="1" parent="1">
          <mxGeometry x="304.37" y="60" width="211.25" height="90" as="geometry" />
        </mxCell>
        <mxCell id="kzBnHmGRQKXRV5qO2WeX-13" value="" style="group" vertex="1" connectable="0" parent="1">
          <mxGeometry x="240" y="250" width="350" height="60" as="geometry" />
        </mxCell>
        <mxCell id="kzBnHmGRQKXRV5qO2WeX-4" value="" style="rounded=1;whiteSpace=wrap;html=1;" vertex="1" parent="kzBnHmGRQKXRV5qO2WeX-13">
          <mxGeometry width="350" height="60" as="geometry" />
        </mxCell>
        <mxCell id="kzBnHmGRQKXRV5qO2WeX-7" value="Username" style="text;html=1;strokeColor=none;fillColor=none;align=center;verticalAlign=middle;whiteSpace=wrap;rounded=0;" vertex="1" parent="kzBnHmGRQKXRV5qO2WeX-13">
          <mxGeometry x="9.370000000000005" width="60" height="30" as="geometry" />
        </mxCell>
        <mxCell id="kzBnHmGRQKXRV5qO2WeX-14" value="" style="group" vertex="1" connectable="0" parent="1">
          <mxGeometry x="240" y="330" width="350" height="60" as="geometry" />
        </mxCell>
        <mxCell id="kzBnHmGRQKXRV5qO2WeX-5" value="" style="rounded=1;whiteSpace=wrap;html=1;" vertex="1" parent="kzBnHmGRQKXRV5qO2WeX-14">
          <mxGeometry width="350" height="60" as="geometry" />
        </mxCell>
        <mxCell id="kzBnHmGRQKXRV5qO2WeX-6" value="Password" style="text;html=1;strokeColor=none;fillColor=none;align=center;verticalAlign=middle;whiteSpace=wrap;rounded=0;" vertex="1" parent="kzBnHmGRQKXRV5qO2WeX-14">
          <mxGeometry width="80" height="40" as="geometry" />
        </mxCell>
        <mxCell id="kzBnHmGRQKXRV5qO2WeX-15" value="" style="group" vertex="1" connectable="0" parent="1">
          <mxGeometry x="240" y="170" width="350" height="60" as="geometry" />
        </mxCell>
        <mxCell id="kzBnHmGRQKXRV5qO2WeX-16" value="" style="rounded=1;whiteSpace=wrap;html=1;" vertex="1" parent="kzBnHmGRQKXRV5qO2WeX-15">
          <mxGeometry width="350" height="60" as="geometry" />
        </mxCell>
        <mxCell id="kzBnHmGRQKXRV5qO2WeX-17" value="Email" style="text;html=1;strokeColor=none;fillColor=none;align=center;verticalAlign=middle;whiteSpace=wrap;rounded=0;" vertex="1" parent="kzBnHmGRQKXRV5qO2WeX-15">
          <mxGeometry x="9.370000000000005" width="60" height="30" as="geometry" />
        </mxCell>
        <mxCell id="kzBnHmGRQKXRV5qO2WeX-18" value="" style="group" vertex="1" connectable="0" parent="1">
          <mxGeometry x="240" y="410" width="350" height="60" as="geometry" />
        </mxCell>
        <mxCell id="kzBnHmGRQKXRV5qO2WeX-19" value="" style="rounded=1;whiteSpace=wrap;html=1;" vertex="1" parent="kzBnHmGRQKXRV5qO2WeX-18">
          <mxGeometry width="350" height="60" as="geometry" />
        </mxCell>
        <mxCell id="kzBnHmGRQKXRV5qO2WeX-20" value="Verify Password" style="text;html=1;strokeColor=none;fillColor=none;align=center;verticalAlign=middle;whiteSpace=wrap;rounded=0;" vertex="1" parent="kzBnHmGRQKXRV5qO2WeX-18">
          <mxGeometry width="110" height="40" as="geometry" />
        </mxCell>
      </root>
    </mxGraphModel>
  </diagram>
</mxfile>
